<svg xmlns="http://www.w3.org/2000/svg" width="640" height="360" viewBox="0 0 640 360" fill="none">
  <rect width="640" height="360" rx="24" fill="#F6FBFF"/>
  <circle cx="120" cy="180" r="48" fill="#FFD36E"/>
  <path d="M120 140v40l28 12" stroke="#1F4A7C" stroke-width="6" stroke-linecap="round" stroke-linejoin="round"/>
  <rect x="260" y="56" width="320" height="170" rx="16" fill="#FFFFFF" stroke="#8FB9E8" stroke-width="3"/>
  <rect x="284" y="80" width="180" height="16" rx="8" fill="#6E86F6"/>
  <rect x="284" y="110" width="220" height="12" rx="6" fill="#C6DBF4"/>
  <rect x="284" y="132" width="206" height="12" rx="6" fill="#C6DBF4"/>
  <rect x="284" y="154" width="160" height="12" rx="6" fill="#C6DBF4"/>
  <rect x="260" y="200" width="260" height="80" rx="14" fill="#FFFFFF" stroke="#8FB9E8" stroke-width="3"/>
  <circle cx="300" cy="240" r="10" stroke="#6E86F6" stroke-width="3"/>
  <circle cx="300" cy="265" r="10" stroke="#6E86F6" stroke-width="3"/>
  <circle cx="340" cy="240" r="10" stroke="#6E86F6" stroke-width="3"/>
  <circle cx="340" cy="265" r="10" stroke="#6E86F6" stroke-width="3"/>
  <text x="320" y="245" font-family="Segoe UI, sans-serif" font-size="14" fill="#3C5A86">A</text>
  <text x="320" y="270" font-family="Segoe UI, sans-serif" font-size="14" fill="#3C5A86">B</text>
  <text x="360" y="245" font-family="Segoe UI, sans-serif" font-size="14" fill="#3C5A86">C</text>
  <text x="360" y="270" font-family="Segoe UI, sans-serif" font-size="14" fill="#3C5A86">D</text>
  <circle cx="480" cy="240" r="8" fill="#FFC247"/>
  <rect x="80" y="240" width="220" height="14" rx="7" fill="#DCEBFA"/>
  <rect x="80" y="262" width="240" height="14" rx="7" fill="#DCEBFA"/>
  <rect x="80" y="284" width="200" height="14" rx="7" fill="#DCEBFA"/>
  <circle cx="182" cy="130" r="24" fill="#FFD7C2"/>
  <path d="M156 210c10-36 24-48 52-48s42 12 52 48" stroke="#6E86F6" stroke-width="18" stroke-linecap="round"/>
  <rect x="160" y="154" width="80" height="56" rx="18" fill="#6E86F6"/>
  <rect x="208" y="210" width="140" height="74" rx="14" fill="#1F2E44"/>
  <circle cx="200" cy="182" r="6" fill="#1F2E44"/>
  <rect x="132" y="206" width="80" height="8" rx="4" fill="#1F2E44"/>
  <rect x="152" y="120" width="60" height="30" rx="15" fill="#1F2E44"/>
  <circle cx="178" cy="130" r="4" fill="#1F2E44"/>
  <rect x="526" y="250" width="70" height="70" rx="12" fill="#CFE6FF"/>
  <path d="M544 300c16-8 32-8 48 0" stroke="#6E86F6" stroke-width="6" stroke-linecap="round"/>
  <circle cx="562" cy="276" r="10" fill="#FFFFFF" stroke="#6E86F6" stroke-width="4"/>
  <circle cx="590" cy="276" r="10" fill="#FFFFFF" stroke="#6E86F6" stroke-width="4"/>
</svg>
